# xmcd
#
# Track frame offsets:
#	150
#	20755
#	40182
#	55930
#	75982
#
# Disc length: 1281 seconds
#
# Revision: 1
# Processed by: cddbd v1.5.2PL0 Copyright (c) Steve Scherf et al.
# Submitted via: audiograbber 1.83.01
#
DISCID=3304ff05
DTITLE=Miisa - Lovin' U [CDM)
DYEAR=1995
DGENRE=Pop
TTITLE0=Lovin' U (Radio Edit)
TTITLE1=Lovin' U (Original Album Version)
TTITLE2=Lovin' U (Instrumental Part 1)
TTITLE3=Lovin' U (Alfa Dimension Mix)
TTITLE4=Lovin' U (Instrumental Part End)
EXTD=TR.
EXTT0=
EXTT1=
EXTT2=
EXTT3=
EXTT4=
PLAYORDER=
